<svg width="1104" height="1104" viewBox="0 0 1104 1104" fill="none" xmlns="http://www.w3.org/2000/svg">
<rect width="1024" height="1024" transform="translate(40 32)" fill="#FBFBFB"/>
<rect width="1024" height="1024" transform="translate(40 32)" fill="url(#seed-bg-a)" fill-opacity="0.4"/>
<rect width="1024" height="1024" transform="translate(40 32)" fill="url(#seed-bg-b)" fill-opacity="0.8"/>
<g transform="translate(552 544) scale(22.5) translate(-12 -12)">
<path d="M23 12A11 11 0 1 1 1 12A11 11 0 1 1 23 12Z" fill="#E8A33C"/>
<path d="M17.2 8.4A5.2 5.2 0 1 1 6.8 8.4A5.2 5.2 0 1 1 17.2 8.4ZM11.4 11A3.7 3.7 0 1 1 4 11A3.7 3.7 0 1 1 11.4 11ZM20 11A3.7 3.7 0 1 1 12.6 11A3.7 3.7 0 1 1 20 11ZM13.2 13.6C13.3 16 13.4 18.2 13.5 20.4L10.5 20.4C10.6 18.2 10.7 16 10.8 13.6Z" fill="#3F8F45"/>
</g>
<defs>
<linearGradient id="seed-bg-a" x1="973.58" y1="0" x2="378.123" y2="917.86" gradientUnits="userSpaceOnUse">
<stop offset="0.141617" stop-color="#FFF7E6"/>
<stop offset="0.485965" stop-color="#FBFBFB"/>
</linearGradient>
<linearGradient id="seed-bg-b" x1="603.371" y1="445.063" x2="239.356" y2="1111.41" gradientUnits="userSpaceOnUse">
<stop offset="0.363044" stop-color="#FBFBFB"/>
<stop offset="0.83031" stop-color="#EDF5E6"/>
</linearGradient>
</defs>
</svg>